<svg width="512" height="512" fill="none" xmlns="http://www.w3.org/2000/svg">
  <g clip-path="url(#clip0)">
    <path d="M405.333 85.333c-17.673 0-32 14.327-32 32V74.667c0-17.673-14.327-32-32-32-17.673 0-32 14.327-32 32V32c0-17.673-14.327-32-32-32-17.673 0-32 14.327-32 32v42.667c0-17.673-14.327-32-32-32-17.673 0-32 14.327-32 32v224l-74.069-37.035A53.341 53.341 0 0083.413 256c-16.613 0-30.08 13.467-30.08 30.08v.128a30.077 30.077 0 008.811 21.333l137.941 137.941a154.454 154.454 0 00109.248 45.184c70.692 0 128-57.308 128-128V117.333c0-17.673-14.326-32-32-32z" fill="#FFD0A6"/>
    <path d="M245.333 224c5.891 0 10.667-4.776 10.667-10.667V8.32A31.295 31.295 0 00245.333 32v192zm64 0c5.891 0 10.667-4.776 10.667-10.667V50.987a31.295 31.295 0 00-10.667 23.68V224zm64-106.667V224c5.891 0 10.667-4.776 10.667-10.667V93.653a31.3 31.3 0 00-10.667 23.68z" fill="#E8B182"/>
  </g>
  <defs>
    <clipPath id="clip0">
      <path fill="#fff" d="M0 0h490.667v490.667H0z"/>
    </clipPath>
  </defs>
</svg>
