<svg xmlns="http://www.w3.org/2000/svg" width="256" height="256" fill="none" viewBox="0 0 256 256"><g clip-path="url(#clip0)"><path fill="#FFD0A6" d="M76.373 106.242H74.584C63.2891 106.242 54.1309 97.084 54.1309 85.7871V31.6797C54.1309 19.8887 63.6895 10.3301 75.4785 10.3301C87.2695 10.3301 96.8281 19.8887 96.8281 31.6797V85.7871C96.8281 97.084 87.6699 106.242 76.373 106.242Z"/><path fill="#FFD0A6" d="M78.6797 256V232.203C78.6797 210.939 71.6895 190.266 58.7852 173.365L46.2891 156.996C36.6953 144.432 31.5 129.062 31.5 113.254C31.5 103.695 32.4023 94.1562 34.1934 84.7676C34.707 82.0762 35.2207 79.3848 35.7324 76.6914C37.6426 66.6816 46.9395 59.8047 57.0645 60.9707V30.9648L214.309 42.459L224.92 65.5781V120.906C224.92 153.658 212.006 185.088 188.98 208.381C185.533 211.867 183.6 216.572 183.6 221.475V256"/><path fill="#E8B182" d="M64.5801 85.7871V31.6797C64.5801 21.6914 71.4395 13.3086 80.7031 10.9785C79.0312 10.5566 77.2812 10.332 75.4785 10.332C63.6895 10.332 54.1309 19.8887 54.1309 31.6797V85.7871C54.1309 97.084 63.2871 106.242 74.584 106.242H76.373C77.8594 106.242 79.3086 106.08 80.7031 105.779C71.4883 103.791 64.5801 95.5977 64.5801 85.7871Z"/><path fill="#E8B182" d="M139.525 39.1113V93.2207C139.525 104.01 131.172 112.844 120.582 113.621C114.699 108.848 107.641 105.473 99.9043 104.004C97.9492 100.875 96.8262 97.1797 96.8262 93.2207V39.1113C96.8262 27.3242 106.387 17.7637 118.18 17.7637C124.072 17.7637 129.412 20.1504 133.271 24.0176C137.133 27.8828 139.525 33.2168 139.525 39.1113Z"/><path fill="#E8B182" d="M161.768 113.674H159.979C148.684 113.674 139.525 104.518 139.525 93.2207V39.1133C139.525 27.3223 149.084 17.7637 160.873 17.7637C172.664 17.7637 182.223 27.3223 182.223 39.1133V93.2207C182.223 104.518 173.064 113.674 161.768 113.674V113.674Z"/><path fill="#E8B182" d="M204.465 107.525H202.678C191.381 107.525 182.223 98.3672 182.223 87.0703V51.5078C182.223 39.7188 191.781 30.1602 203.572 30.1602C215.361 30.1602 224.92 39.7188 224.92 51.5078V87.0703C224.92 98.3672 215.762 107.525 204.465 107.525V107.525Z"/><path fill="#FFD0A6" d="M139.523 21.3477V75.457C139.523 86.752 130.369 95.9102 119.068 95.9102H117.283C105.986 95.9102 96.8281 86.752 96.8281 75.457V21.3477C96.8281 9.56055 106.385 0 118.176 0C124.074 0 129.408 2.38672 133.27 6.25391C137.135 10.1191 139.523 15.4531 139.523 21.3477Z"/><path fill="#E8B182" d="M107.277 75.457V21.3496C107.277 11.3613 114.137 2.97852 123.4 0.646484C121.729 0.226562 119.98 0.00195312 118.176 0.00195312C106.387 0.00195312 96.8281 9.55859 96.8281 21.3496V75.457C96.8281 86.7539 105.986 95.9121 117.283 95.9121H119.07C120.557 95.9121 122.006 95.75 123.4 95.4473C114.186 93.4609 107.277 85.2676 107.277 75.457Z"/><path fill="#FFD0A6" d="M161.768 95.9102H159.979C148.684 95.9102 139.525 86.7539 139.525 75.457V21.3496C139.525 9.55859 149.084 0 160.873 0C172.664 0 182.223 9.55859 182.223 21.3496V75.457C182.223 86.7539 173.064 95.9102 161.768 95.9102V95.9102Z"/><path fill="#E8B182" d="M149.975 75.457V21.3496C149.975 11.3613 156.834 2.97852 166.1 0.646484C164.426 0.226562 162.678 0.00195312 160.875 0.00195312C149.084 0.00195312 139.525 9.55859 139.525 21.3496V75.457C139.525 86.7539 148.684 95.9121 159.98 95.9121H161.77C163.256 95.9121 164.703 95.75 166.1 95.4473C156.883 93.4609 149.975 85.2676 149.975 75.457V75.457Z"/><path fill="#FFD0A6" d="M204.465 89.7617H202.678C191.381 89.7617 182.223 80.6035 182.223 69.3066V33.7461C182.223 21.9551 191.781 12.3965 203.572 12.3965C215.361 12.3965 224.92 21.9551 224.92 33.7461V69.3066C224.92 80.6035 215.762 89.7617 204.465 89.7617V89.7617Z"/><path fill="#E8B182" d="M192.672 69.3066V33.7461C192.672 23.7578 199.531 15.375 208.795 13.043C207.123 12.623 205.375 12.3965 203.572 12.3965C191.781 12.3965 182.223 21.9551 182.223 33.7461V69.3066C182.223 80.6035 191.381 89.7617 202.678 89.7617H204.465C205.953 89.7617 207.4 89.5996 208.795 89.2988C199.58 87.3105 192.672 79.1172 192.672 69.3066Z"/><path fill="#E8B182" d="M139.523 67.1562V75.457C139.523 86.752 130.369 95.9102 119.068 95.9102H117.283C105.986 95.9102 96.8281 86.752 96.8281 75.457V62.5625C105.475 62.5117 114.111 62.0039 122.715 61.0332C129.184 60.3066 135.322 62.7402 139.523 67.1562Z"/><path fill="#FFD0A6" d="M78.6797 256V232.203C78.6797 210.939 71.6895 190.266 58.7852 173.365L46.2891 156.996C36.6953 144.432 31.5 129.062 31.5 113.254C31.5 103.695 32.4023 94.1562 34.1934 84.7676C34.707 82.0762 35.2207 79.3848 35.7324 76.6914C37.6426 66.6816 46.9395 59.8047 57.0645 60.9707C75.4023 63.0801 93.9219 63.1016 112.264 61.0332C122.703 59.8555 132.285 66.9199 134.254 77.2402L134.33 77.6387C136.527 89.1543 128.445 100.08 116.795 101.393C105.855 102.625 94.8633 103.221 83.8711 103.18"/><path fill="#E8B182" d="M81.252 173.363C94.1562 190.264 101.148 210.938 101.148 232.201V255.998H78.6816V232.201C78.6816 210.938 71.6914 190.264 58.7871 173.363L46.291 156.994C36.6992 144.43 31.5 129.059 31.5 113.256C31.5 108.475 31.7246 103.699 32.1738 98.9453C32.623 94.1914 33.3027 89.457 34.1953 84.7656C34.707 82.0762 35.2207 79.3848 35.7363 76.6894C37.6445 66.6797 46.9434 59.8027 57.0625 60.9687C61.4883 61.4746 65.9297 61.8672 70.3711 62.1289C64.2578 64.4746 59.5039 69.8496 58.2031 76.6894C57.6855 79.3848 57.1738 82.0762 56.6602 84.7656C54.8691 94.1543 53.9648 103.695 53.9648 113.256C53.9648 121.16 55.2656 128.949 57.7637 136.342C60.2617 143.73 63.959 150.709 68.7559 156.994L81.252 173.363Z"/><path fill="#E8B182" d="M137.938 153.93C135.773 153.93 134.02 152.174 134.02 150.01C134.02 137.008 128.223 124.854 118.115 116.666C112.625 112.209 106.076 109.164 99.1738 107.854C96.541 107.352 93.8262 107.096 91.1055 107.096H83.8691C81.7051 107.096 79.9512 105.342 79.9512 103.178C79.9512 101.014 81.7051 99.2598 83.8691 99.2598H91.1055C94.3184 99.2598 97.5254 99.5605 100.639 100.154C108.807 101.705 116.559 105.311 123.051 110.58C135.002 120.26 141.855 134.633 141.855 150.01C141.855 152.174 140.102 153.93 137.938 153.93Z"/></g><defs><clipPath id="clip0"><rect width="256" height="256" fill="#fff"/></clipPath></defs></svg>