<svg width="256" height="256" viewBox="0 0 256 256" fill="none" xmlns="http://www.w3.org/2000/svg">
<path d="M181.76 115.851C181.76 105.407 189.662 96.9376 199.412 96.9376H199.808C209.543 96.9376 217.438 105.374 217.467 115.799C217.541 149.911 217.496 153.264 217.445 204.218C217.416 232.824 195.762 256 169.056 256H111.716C94.166 256 77.9888 245.824 69.4454 229.401L40.0708 152.955C36.7335 144.278 38.98 134.442 45.7531 128.074L75.3154 100.268L75.3668 27.1415C75.3735 16.7047 83.2754 8.24616 93.0215 8.24616H93.026C102.578 8.24616 110.354 16.3604 110.674 26.5111V18.9065C110.674 8.46298 118.578 0 128.329 0H128.747C138.497 0 146.401 8.46969 146.401 18.9132V106.261C146.401 95.8177 154.308 87.348 164.06 87.348H164.101C173.851 87.348 181.76 95.8177 181.76 106.261V115.851Z" fill="#FFD0A6"/>
<rect x="108.112" y="23.4582" width="5.0996" height="79.5538" fill="#E8B182"/>
<rect x="143.809" y="103.012" width="5.09961" height="19.3785" fill="#E8B182"/>
<rect x="179.506" y="112.191" width="5.09959" height="19.3785" fill="#E8B182"/>
</svg>
